# xmcd generated by iCDc
#
# Track frame offsets:
#     150
#     25217
#     40537
#     55207
#     78992
#     100110
#     129885
#     166467
#     179935
#     193090
#     214155
#     232877
#     249872
#     293680
#     317052
#
# Disc length: 4483 seconds
#
# Revision: 0
# Processed by: cddbd v1.4PL0 Copyright (c) Steve Scherf et al.
# Submitted via: iCDc 2.0 http://homepage.mac.com/andersw/icdc/
#
DISCID=c611810f
DTITLE=Stevie Ray Vaughan And Double Trouble - At The Steamboat 1874
DYEAR=1980
DGENRE=Blues
TTITLE0=Scuttle Buttin'
TTITLE1=Evening Boogie
TTITLE2=I'll Drive In your Town
TTITLE3=The Sky Is Crying
TTITLE4=I'm Leaving You
TTITLE5=All Your love
TTITLE6=Tin Pan Alley
TTITLE7=Love Struck Baby
TTITLE8=Tell Me
TTITLE9=Little Wing
TTITLE10=Instrumentel
TTITLE11=I'm Crying
TTITLE12=Texas Flood
TTITLE13=Treat You Right
TTITLE14=Hideaway
EXTD=
EXTT0=
EXTT1=
EXTT2=
EXTT3=
EXTT4=
EXTT5=
EXTT6=
EXTT7=
EXTT8=
EXTT9=
EXTT10=
EXTT11=
EXTT12=
EXTT13=
EXTT14=
PLAYORDER=
